<?xml version="1.0" encoding="UTF-8" standalone="no"?>
<svg
   viewBox="0 0 646.20776 970.46973"
   height="970.46973"
   width="646.20776"
   xml:space="preserve"
   id="svg2"
   version="1.1"
   sodipodi:docname="da.svg"
   inkscape:export-filename="..\..\..\..\Downloads\da.svg"
   inkscape:export-xdpi="96"
   inkscape:export-ydpi="96"
   xmlns:inkscape="http://www.inkscape.org/namespaces/inkscape"
   xmlns:sodipodi="http://sodipodi.sourceforge.net/DTD/sodipodi-0.dtd"
   xmlns="http://www.w3.org/2000/svg"
   xmlns:svg="http://www.w3.org/2000/svg"
   xmlns:rdf="http://www.w3.org/1999/02/22-rdf-syntax-ns#"
   xmlns:cc="http://creativecommons.org/ns#"
   xmlns:dc="http://purl.org/dc/elements/1.1/"><sodipodi:namedview
     id="namedview249"
     pagecolor="#ffffff"
     bordercolor="#000000"
     borderopacity="0.25"
     inkscape:showpageshadow="2"
     inkscape:pageopacity="0.0"
     inkscape:pagecheckerboard="0"
     inkscape:deskcolor="#d1d1d1"
     showgrid="false" /><metadata
     id="metadata8"><rdf:RDF><cc:Work
         rdf:about=""><dc:format>image/svg+xml</dc:format><dc:type
           rdf:resource="http://purl.org/dc/dcmitype/StillImage" /></cc:Work></rdf:RDF></metadata><defs
     id="defs6" /><g
     transform="matrix(1.3333333,0,0,-1.3333333,-489.85666,1167.4807)"
     id="g10"><g
       transform="scale(0.1)"
       id="g12"><path
         style="fill:#000000;stroke-width:4.34279"
         d="m 3673.925,2106.8865 v 629.3047 l 773.0175,1338.8333 c 425.1596,736.3582 773.0174,1340.4042 773.0174,1342.3242 0,1.92 -347.8578,3.491 -773.0174,3.491 H 3673.925 v 985.8075 985.8075 l 1344.7872,1.0926 1344.7872,1.0926 392.8453,680.7329 392.8454,680.7331 h 685.6469 685.6469 V 8126.9241 7497.7425 L 7749.5901,6162.0409 c -423.9914,-734.636 -772.0582,-1338.7372 -773.4821,-1342.4473 -2.3342,-6.0829 73.3606,-6.7452 770.8938,-6.7452 h 773.4821 v -983.643 -983.643 H 7178.8561 5837.2282 l -8.2099,-11.9427 c -4.5154,-6.5684 -182.6933,-314.364 -395.9509,-683.9901 l -387.741,-672.0475 H 4359.6257 3673.925 Z"
         id="path392" /></g></g></svg>
