<?xml version="1.0" encoding="UTF-8" standalone="no"?>
<svg
   width="61.077232mm"
   height="65.478371mm"
   viewBox="0 0 216.41539 232.00998"
   version="1.1"
   id="svg186"
   sodipodi:docname="mastodon.svg"
   xmlns:inkscape="http://www.inkscape.org/namespaces/inkscape"
   xmlns:sodipodi="http://sodipodi.sourceforge.net/DTD/sodipodi-0.dtd"
   xmlns="http://www.w3.org/2000/svg"
   xmlns:svg="http://www.w3.org/2000/svg">
  <defs
     id="defs190" />
  <sodipodi:namedview
     id="namedview188"
     pagecolor="#ffffff"
     bordercolor="#000000"
     borderopacity="0.25"
     inkscape:showpageshadow="2"
     inkscape:pageopacity="0.0"
     inkscape:pagecheckerboard="0"
     inkscape:deskcolor="#d1d1d1"
     inkscape:document-units="mm"
     showgrid="false" />
  <path
     id="path182"
     d="M 107.86587,0 C 78.204654,0.24249976 49.672801,3.4544558 33.045318,11.090698 c 0,0 -32.97729523,14.751227 -32.97729523,65.081177 0,11.524988 -0.22400842,25.305085 0.14099121,39.918825 1.19749882,49.21995 9.02318492,97.72857 54.53064002,109.77356 20.982479,5.55374 38.998344,6.7173 53.507076,5.9198 26.31122,-1.45875 41.08154,-9.38965 41.08154,-9.38965 l -0.86792,-19.09058 c 0,0 -18.80259,5.92819 -39.91882,5.20569 -20.921226,-0.7175 -43.007852,-2.25567 -46.391598,-27.94189 -0.3125,-2.25625 -0.46875,-4.66963 -0.46875,-7.20337 0,0 20.538077,5.02027 46.565548,6.21277 15.91498,0.72999 30.83919,-0.93235 45.99792,-2.74109 29.06997,-3.47125 54.38162,-21.38279 57.56287,-37.74903 5.01249,-25.78122 4.59961,-62.915035 4.59961,-62.915035 0,-50.32995 -32.97546,-65.081177 -32.97546,-65.081177 C 166.80543,3.4544558 138.25585,0.24249976 108.59463,0 Z M 74.297149,39.325561 c 12.354987,0 21.709874,4.748696 27.896111,14.247437 l 6.01502,10.081787 6.01501,-10.081787 c 6.185,-9.498741 15.53988,-14.247437 27.89612,-14.247437 10.67749,0 19.28084,3.753557 25.85083,11.07605 6.36874,7.322493 9.53979,17.220916 9.53979,29.675903 V 141.01868 H 153.36575 V 81.868286 c 0,-12.468738 -5.24601,-18.797608 -15.73975,-18.797608 -11.60249,0 -17.41699,7.5067 -17.41699,22.351685 V 117.79907 H 96.207549 V 85.422363 c 0,-14.844985 -5.816335,-22.351685 -17.418823,-22.351685 -10.49374,0 -15.739746,6.32887 -15.739746,18.797608 V 141.01868 H 38.904693 V 80.077514 c 0,-12.454987 3.171632,-22.35341 9.541626,-29.675903 6.568743,-7.322493 15.17209,-11.07605 25.85083,-11.07605 z" />
</svg>
