<?xml version="1.0" encoding="UTF-8" standalone="no"?>
<!-- Created with Inkscape (http://www.inkscape.org/) -->

<svg
   width="135.30408mm"
   height="106.85033mm"
   viewBox="0 0 135.30408 106.85033"
   version="1.1"
   id="svg5"
   xml:space="preserve"
   inkscape:export-filename="bitmap.svg"
   inkscape:export-xdpi="96"
   inkscape:export-ydpi="96"
   xmlns:inkscape="http://www.inkscape.org/namespaces/inkscape"
   xmlns:sodipodi="http://sodipodi.sourceforge.net/DTD/sodipodi-0.dtd"
   xmlns="http://www.w3.org/2000/svg"
   xmlns:svg="http://www.w3.org/2000/svg"><sodipodi:namedview
     id="namedview7"
     pagecolor="#ffffff"
     bordercolor="#000000"
     borderopacity="0.25"
     inkscape:showpageshadow="2"
     inkscape:pageopacity="0.0"
     inkscape:pagecheckerboard="0"
     inkscape:deskcolor="#d1d1d1"
     inkscape:document-units="mm"
     showgrid="false" /><defs
     id="defs2" /><g
     inkscape:label="Layer 1"
     inkscape:groupmode="layer"
     id="layer1"
     transform="translate(-40.532674,-90.886236)"><path
       style="fill:#000000;stroke-width:0.133572"
       d="m 48.164724,197.55103 c -3.356793,-0.8183 -6.578065,-5.33105 -7.33737,-10.27906 -0.30541,-1.99021 -0.367395,-3.52975 -0.213884,-5.31238 0.28149,-3.26878 1.121924,-5.68035 2.848809,-8.17449 0.738597,-1.06676 0.842357,-1.29058 0.793256,-1.71116 -0.08013,-0.6864 0.203255,-4.01761 0.434483,-5.10733 0.246648,-1.16238 0.315332,-1.24599 4.61007,-5.61128 3.762233,-3.82404 6.549732,-6.48995 9.89769,-9.46596 l 2.214758,-1.9687 0.09016,-3.52044 c 0.197123,-7.69658 0.962922,-17.35938 1.432688,-18.07754 0.35278,-0.53932 6.97332,-5.49699 10.941995,-8.19372 1.652956,-1.12319 3.027801,-2.06044 3.055211,-2.08278 0.02741,-0.0224 -0.136822,-0.32243 -0.364959,-0.66686 -1.07123,-1.61726 -1.247941,-2.86718 -0.820965,-5.80692 0.339317,-2.33621 0.794054,-4.02237 1.705125,-6.3226 0.491829,-1.24174 0.712858,-1.64116 1.007266,-1.8202 0.207444,-0.12615 1.3374,-0.48806 2.511011,-0.80424 1.627171,-0.43836 2.116789,-0.61929 2.062033,-0.76199 -0.03949,-0.10292 -0.07336,-0.25734 -0.07526,-0.34317 -0.0019,-0.0858 -0.243042,-0.26652 -0.535885,-0.40155 -0.789948,-0.36426 -0.863307,-0.58376 -0.862225,-2.57993 0.0011,-1.92296 0.07061,-2.12067 0.861417,-2.44824 0.298084,-0.12347 0.393704,-0.26907 0.463549,-0.70586 0.205664,-1.28615 1.535314,-2.86701 2.981434,-3.54471 0.711019,-0.33321 0.898049,-0.36009 2.504833,-0.36009 1.679575,0 1.76625,0.0141 2.646763,0.43117 1.023682,0.48485 2.170062,1.57024 2.551199,2.41545 0.156335,0.34669 0.393963,0.5969 0.710018,0.74761 l 0.47504,0.22654 -0.08698,1.13152 c -0.06992,0.90962 -0.04593,1.19417 0.122326,1.45096 0.180128,0.27491 0.188358,0.47462 0.05905,1.43276 -0.281799,2.08801 -0.34293,2.22688 -1.13437,2.57689 -0.545553,0.24127 -0.73103,0.40381 -0.849897,0.74479 -0.188208,0.53989 -0.188567,0.52988 0.01899,0.52988 0.21313,0 3.265713,1.80486 3.653045,2.15988 0.378572,0.347 1.64655,2.82827 2.184049,4.2739 0.327994,0.88215 0.498738,1.17391 0.717422,1.22588 0.157844,0.0375 6.688451,1.01135 14.512441,2.16409 l 14.22544,2.0959 0.85198,0.57665 0.85197,0.57666 0.88781,-0.62591 c 0.4883,-0.34425 3.79316,-2.66803 7.34415,-5.16395 l 6.45632,-4.53805 0.47126,-0.96598 c 0.67124,-1.3759 1.44351,-2.16984 4.41892,-4.54294 1.44487,-1.15238 4.06961,-3.26787 5.83277,-4.70109 1.76315,-1.43321 3.57991,-2.86803 4.03724,-3.18849 1.98475,-1.39073 4.53073,-1.8992 7.46556,-1.49101 4.14367,0.57634 7.8119,3.9465 8.8235,8.10657 0.32012,1.3164 0.28706,3.93319 -0.0664,5.25816 -0.50839,1.90564 -1.73194,3.89648 -3.1268,5.08764 -0.84754,0.72375 -2.11765,1.55675 -2.84399,1.86521 -9.82864,4.17399 -13.92711,5.87199 -14.58436,6.0423 -0.44654,0.11571 -1.31821,0.21038 -1.93705,0.21038 h -1.12516 l -5.93489,3.18058 c -3.26419,1.74931 -6.58104,3.52575 -7.37078,3.94765 -0.78975,0.42189 -1.43591,0.78165 -1.43591,0.79946 0,0.0178 0.23237,0.72405 0.51638,1.56941 0.63086,1.87781 1.16302,4.0837 1.34718,5.58434 0.0758,0.61773 0.15336,1.13758 0.17232,1.15524 0.019,0.0177 0.84594,0.12943 1.83772,0.2484 1.26937,0.15226 1.90209,0.28849 2.13715,0.46014 0.42189,0.30807 0.64258,1.11952 0.65894,2.42276 0.0212,1.68338 -0.16793,1.54879 2.32338,1.65407 5.62433,0.23766 12.32124,1.16592 14.36387,1.99098 3.71449,1.50035 6.677,4.69534 9.16468,9.88388 1.07396,2.23994 1.33066,2.99791 1.20661,3.56272 -0.10624,0.48371 -0.30185,0.65812 -2.58056,2.30085 l -1.91148,1.37799 -0.046,3.47288 c -0.0779,5.87594 -0.66259,10.19653 -2.03263,15.0204 -1.48631,5.23328 -4.38154,10.91445 -7.4145,14.54915 -1.98731,2.3816 -5.06626,5.10473 -7.24558,6.40825 l -0.92657,0.55421 -49.964463,-0.0114 c -38.804727,-0.009 -50.113628,-0.0477 -50.63232,-0.17417 z m 51.39437,-2.50401 c 1.612806,-0.81414 5.039906,-3.35113 5.039906,-3.73091 0,-0.0653 -1.15707,-0.13515 -2.57126,-0.1551 -3.095921,-0.0437 -3.084836,-0.0345 -1.87564,-1.55296 l 0.77367,-0.97153 3.02181,0.0905 3.02181,0.0905 1.05971,-1.58534 c 0.94374,-1.41185 2.98137,-5.17021 2.98137,-5.49906 0,-0.0696 -0.82648,-0.165 -1.83662,-0.21207 -2.95213,-0.13756 -3.6119,-0.21546 -3.69672,-0.43649 -0.0417,-0.10862 0.13402,-0.65158 0.39044,-1.20658 l 0.46623,-1.00908 2.91715,0.0971 2.91714,0.0971 0.62339,-1.91667 c 0.56751,-1.74483 1.62852,-5.84472 1.5317,-5.91868 -0.0221,-0.0169 -1.20315,-0.094 -2.62455,-0.17128 -1.43123,-0.0779 -2.64706,-0.20327 -2.72488,-0.28109 -0.17467,-0.17466 0.12745,-2.09214 0.36005,-2.28519 0.0998,-0.0828 0.80146,-0.0848 1.95143,-0.006 0.98758,0.0681 2.19171,0.12594 2.67583,0.12853 l 0.88022,0.005 0.21638,-1.56947 c 0.18778,-1.36203 0.31573,-2.6626 0.55022,-5.59265 l 0.0547,-0.68387 -0.95695,-0.0826 c -0.52633,-0.0454 -1.7083,-0.1215 -2.62661,-0.16905 -0.91831,-0.0476 -1.77953,-0.14303 -1.91384,-0.2122 -0.21729,-0.11191 -0.23412,-0.23863 -0.15285,-1.15067 0.0502,-0.56369 0.16011,-1.09647 0.24418,-1.18395 0.1182,-0.12298 0.72838,-0.11629 2.69073,0.0295 1.39583,0.10371 2.58295,0.19032 2.63805,0.19244 0.0551,0.002 0.10018,-1.22834 0.10018,-2.73437 0,-2.09908 -0.039,-2.7393 -0.16696,-2.74284 -0.0918,-0.003 -4.16412,-0.26557 -9.04952,-0.58454 -4.88541,-0.31896 -8.893001,-0.57192 -8.905762,-0.56213 -0.01276,0.01 -0.08992,1.88071 -0.171476,4.1576 -0.231433,6.46165 -0.697429,10.14022 -1.894998,14.95915 -2.463322,9.91222 -7.780767,18.99932 -13.848682,23.66631 -0.63739,0.49024 -1.215993,0.94084 -1.285784,1.00134 -0.06979,0.0605 4.03426,0.11 9.120116,0.11 h 9.247008 z m 49.654466,-0.16773 c 1.10313,-0.74648 3.47146,-2.71456 3.47146,-2.8848 0,-0.0777 -1.02717,-0.14383 -2.57127,-0.16562 -3.02773,-0.0427 -2.97041,0.002 -1.83662,-1.43672 l 0.73465,-0.93231 3.07176,0.0117 3.07176,0.0117 0.89909,-1.24961 c 0.4945,-0.68729 1.38246,-2.06107 1.97324,-3.05284 l 1.07414,-1.80323 -1.23819,-0.0956 c -0.681,-0.0526 -1.94871,-0.1339 -2.81713,-0.18073 -1.03025,-0.0556 -1.60021,-0.14056 -1.64012,-0.24457 -0.0337,-0.0877 0.1562,-0.62991 0.42189,-1.20495 l 0.48306,-1.04554 2.29243,0.088 c 1.26083,0.0484 2.59719,0.12155 2.96968,0.16253 l 0.67727,0.0745 0.61211,-1.58186 c 0.63572,-1.64287 1.70659,-4.89836 1.70659,-5.18809 0,-0.17804 -0.741,-0.25963 -3.7848,-0.41673 -1.34656,-0.0695 -1.731,-0.13168 -1.79167,-0.28979 -0.0425,-0.11072 0.0349,-0.65157 0.17191,-1.20189 l 0.24916,-1.00058 2.41074,0.0904 c 1.3259,0.0497 2.6051,0.12465 2.84265,0.16651 0.36709,0.0647 0.45002,0.0285 0.55252,-0.24109 0.30403,-0.79966 1.02159,-7.13728 0.83179,-7.34648 -0.0439,-0.0484 -1.19178,-0.15987 -2.55088,-0.24779 -1.46434,-0.0947 -2.53396,-0.22216 -2.62542,-0.31279 -0.18041,-0.17874 -0.0487,-2.00797 0.15936,-2.21322 0.0812,-0.0801 1.01485,-0.0623 2.53285,0.0482 1.32237,0.0962 2.45517,0.12874 2.51735,0.0722 0.12319,-0.112 -0.0257,-3.48745 -0.16362,-3.71069 -0.0477,-0.0771 -3.09265,-0.40456 -6.96283,-0.74871 -3.78297,-0.33639 -7.1486,-0.64561 -7.47919,-0.68715 l -0.60107,-0.0755 -0.01,2.71278 c -0.044,12.05993 -4.02577,24.21186 -10.4557,31.90966 -0.58818,0.70416 -1.89272,2.0716 -2.89898,3.03877 l -1.82956,1.75848 h 7.33135 7.33135 z m -84.979668,0.10712 c 1.365746,-0.68058 2.644005,-2.55936 3.172616,-4.66311 0.319531,-1.27166 0.323008,-3.35349 0.0074,-4.40386 -0.86186,-2.86795 -2.622379,-4.05804 -4.782194,-3.23271 -1.359702,0.51958 -2.947231,2.79829 -3.383302,4.85632 -0.250362,1.18159 -0.250413,3.25564 -1.03e-4,4.21665 0.40274,1.54622 1.232018,2.79869 2.187193,3.30334 0.73852,0.39019 1.926962,0.35765 2.798434,-0.0766 z m -2.292107,-1.6268 c -0.03489,-0.0565 0.171941,-0.0802 0.459621,-0.0528 0.572222,0.0546 0.699646,-0.14141 0.248814,-0.38269 -0.150831,-0.0807 -0.48327,-0.47353 -0.738752,-0.87292 -0.448773,-0.70154 -0.484741,-0.72615 -1.061484,-0.72615 -0.441592,0 -0.59697,-0.0521 -0.59697,-0.20036 0,-0.14755 0.153959,-0.20036 0.584205,-0.20036 h 0.584205 l -0.08805,-0.43411 c -0.07947,-0.39181 -0.139648,-0.43823 -0.617598,-0.47642 -0.291252,-0.0233 -0.576437,-0.0882 -0.633745,-0.14427 -0.218697,-0.21398 0.155357,-2.43849 0.55288,-3.28798 0.429145,-0.91706 1.197877,-1.84724 1.77198,-2.14412 0.483484,-0.25002 1.629118,-0.24542 2.120163,0.009 0.506895,0.26213 1.026024,0.95526 1.345828,1.79691 0.310148,0.81624 0.349331,2.78905 0.07574,3.81327 -0.384148,1.43809 -1.286103,2.76246 -2.147955,3.15392 -0.542709,0.2465 -1.739453,0.34277 -1.858882,0.14954 z m 14.578901,1.54475 c 0.353023,-0.16314 1.075514,-0.73401 1.645953,-1.30055 0.828412,-0.82275 1.130273,-1.24482 1.629732,-2.27872 0.929723,-1.92456 1.216668,-3.17833 1.207531,-5.2761 -0.0065,-1.50182 -0.05517,-1.88224 -0.359877,-2.81549 -0.38981,-1.1939 -1.15318,-2.47635 -1.795982,-3.01723 -1.393039,-1.17216 -3.673297,-0.96677 -5.334369,0.48049 -0.716566,0.62434 -1.905646,2.42253 -2.346829,3.549 -0.999155,2.55115 -1.043099,5.96772 -0.104062,8.09057 0.62533,1.41366 1.840238,2.58087 2.992517,2.87503 0.631532,0.16122 1.754846,0.0214 2.465386,-0.307 z m -2.718932,-2.12428 c -0.06122,-0.0991 4.01e-4,-0.11875 0.186637,-0.0596 0.152917,0.0485 0.491747,0.0482 0.752954,-0.001 l 0.474923,-0.0891 -0.591468,-0.52064 c -0.325309,-0.28635 -0.72208,-0.79043 -0.881716,-1.1202 l -0.290247,-0.59966 h -0.77394 c -0.661604,0 -0.784079,-0.0388 -0.8438,-0.26715 -0.06357,-0.24308 -0.0041,-0.26714 0.660345,-0.26714 h 0.730207 l -0.04146,-0.50089 -0.04146,-0.5009 -0.781318,-0.0404 -0.781318,-0.0404 0.08891,-1.09491 c 0.115364,-1.42064 0.375099,-2.33074 1.019946,-3.57383 1.123733,-2.16625 2.822043,-3.02567 4.486097,-2.27018 2.037583,0.92508 2.68049,5.20242 1.237497,8.23321 -0.91875,1.92969 -2.11801,2.86058 -3.685292,2.86058 -0.4658,0 -0.874467,-0.0653 -0.925506,-0.14789 z m -23.093827,1.54344 c 1.937173,-0.50444 3.757593,-2.23898 5.039392,-4.80166 1.693375,-3.38552 1.911922,-8.16827 0.534921,-11.70638 -0.483394,-1.24205 -1.464264,-2.74917 -2.197946,-3.37717 l -0.543192,-0.46495 -0.811444,0.55104 c -0.735993,0.4998 -0.787231,0.56442 -0.551034,0.69492 0.674876,0.37289 1.891861,1.79117 2.358436,2.74855 0.715981,1.46913 0.92055,2.37106 0.999767,4.40788 0.144299,3.71028 -0.804415,6.53026 -2.920007,8.67948 -1.183425,1.20225 -2.902362,1.73494 -4.318748,1.33838 -0.861168,-0.24112 -0.844651,-0.3588 0.04146,-0.29536 0.418112,0.0299 0.967179,5e-4 1.220147,-0.0654 l 0.459945,-0.11979 -0.485417,-0.3 c -0.68624,-0.42412 -1.760407,-1.63951 -2.12705,-2.40669 -0.298589,-0.62478 -0.337671,-0.6541 -0.978867,-0.73417 -0.367324,-0.0459 -0.924806,-0.0839 -1.238849,-0.0846 -0.489503,-0.001 -0.589579,-0.0501 -0.701255,-0.34379 -0.07165,-0.18844 -0.130266,-0.36876 -0.130266,-0.40071 0,-0.032 0.531028,-0.0581 1.180063,-0.0581 h 1.180063 l -0.204292,-0.78413 -0.204292,-0.78414 -1.052897,-0.0722 c -0.579094,-0.0397 -1.093325,-0.11294 -1.142737,-0.16276 -0.172926,-0.17439 -0.05203,-3.3369 0.165436,-4.32765 0.119312,-0.54357 0.192422,-1.01282 0.162466,-1.04278 -0.02996,-0.0299 -0.325702,0.13672 -0.657214,0.37039 l -0.602749,0.42486 -0.163885,1.33784 c -0.346354,2.82741 0.01843,5.60332 1.011875,7.70012 1.592357,3.36088 3.936691,4.79274 6.678175,4.07886 z m 15.132455,-17.28884 1.910823,-0.93318 -0.408196,-0.50272 c -0.224507,-0.2765 -0.5141,-0.63681 -0.643539,-0.8007 l -0.235347,-0.29798 -1.469294,0.90476 -1.469295,0.90477 0.0355,0.52858 c 0.04746,0.70664 0.148279,1.12966 0.269238,1.12966 0.05461,0 0.959159,-0.41994 2.01011,-0.93319 z m 18.322066,-0.78865 c 3.22952,-1.11523 6.499208,-4.85349 8.074016,-9.23109 1.177766,-3.27391 1.685509,-7.70388 1.271088,-11.09 -0.312222,-2.55108 -1.203551,-5.37231 -2.287685,-7.24097 l -0.522024,-0.89978 -1.12878,0.82311 -1.12878,0.8231 0.275825,0.41061 c 0.151703,0.22584 0.544655,0.96496 0.873226,1.6425 2.140077,4.41302 1.962817,11.13862 -0.42065,15.96034 -1.119226,2.26417 -2.86318,4.35131 -4.377219,5.2386 -0.907768,0.53198 -2.646915,0.92627 -3.697252,0.83822 -0.878201,-0.0736 -2.136162,-0.46695 -2.616286,-0.81802 -0.223315,-0.16329 -0.158605,-0.16328 0.471209,9e-5 0.883454,0.22917 1.837876,0.24134 2.858092,0.0364 l 0.761498,-0.15293 -0.50547,-0.22829 c -1.239002,-0.55956 -2.744006,-2.22093 -3.660395,-4.0407 l -0.521291,-1.03519 h -1.847378 -1.847377 l -0.154716,-0.51639 c -0.08509,-0.28401 -0.154715,-0.58455 -0.154715,-0.66786 0,-0.10514 0.531087,-0.15147 1.736439,-0.15147 0.955042,0 1.736439,-0.0511 1.736439,-0.11364 0,-0.0625 -0.05659,-0.2879 -0.12576,-0.50089 -0.06917,-0.213 -0.193645,-0.73288 -0.276615,-1.1553 l -0.150854,-0.76799 h -1.709492 -1.709493 l -0.08279,-0.50089 c -0.04554,-0.2755 -0.08346,-1.0018 -0.08426,-1.614 -8.08e-4,-0.61221 -0.04905,-1.09307 -0.107206,-1.06858 -0.05815,0.0245 -0.454385,0.28495 -0.880514,0.57881 l -0.774779,0.53429 0.07847,1.48169 c 0.200739,3.7904 1.277388,7.14485 3.133255,9.7621 1.366704,1.92739 2.872422,3.12292 4.68375,3.71884 0.881088,0.28988 1.201317,0.32718 2.480963,0.28897 1.087348,-0.0325 1.69499,-0.12181 2.337515,-0.34369 z m -19.434764,-5.02364 c 2.277407,-1.53047 4.159996,-2.79691 4.183531,-2.81433 0.02354,-0.0174 -0.05365,-0.53334 -0.171518,-1.1465 -0.117871,-0.61317 -0.257342,-1.70049 -0.309936,-2.41628 l -0.09563,-1.30144 -6.010752,4.21583 c -3.305913,2.31872 -6.053771,4.25773 -6.10635,4.30892 -0.05258,0.0512 0.230328,0.34526 0.628684,0.65349 0.398357,0.30822 1.03878,0.98066 1.423163,1.49431 l 0.698878,0.93389 0.809592,-0.57262 c 0.445277,-0.31494 2.672927,-1.82481 4.950334,-3.35527 z m 80.708426,-16.72985 c -0.0795,-2.46105 -0.26497,-3.30019 -1.12948,-5.10914 -0.51265,-1.07269 -0.78444,-1.44699 -1.75745,-2.42026 -1.7193,-1.71977 -4.0138,-3.06891 -6.2195,-3.65702 -0.65193,-0.17383 -17.81173,-1.95878 -17.9432,-1.86645 -0.0205,0.0144 0.32474,0.71538 0.76719,1.55775 0.85121,1.62063 1.87472,4.48396 1.87472,5.24463 0,0.40969 -0.18122,0.62569 -1.87001,2.22887 l -1.87001,1.77521 v 0.90615 c 0,0.89761 0.004,0.90622 0.36732,0.91387 0.20203,0.004 6.31797,0.56826 13.59098,1.25335 7.27301,0.68509 13.45623,1.25264 13.74051,1.26121 l 0.51685,0.0156 z m -3.75279,0.4912 c -0.71168,-0.55981 -0.30807,-1.86031 0.57734,-1.86031 0.5682,0 0.79455,0.12247 1.01529,0.54932 0.24917,0.48184 0.1344,0.97485 -0.30795,1.3228 -0.43206,0.33986 -0.84241,0.33609 -1.28468,-0.0118 z m -6.75372,-0.87654 c -0.31225,-0.39696 -0.34794,-0.73268 -0.12327,-1.15952 0.21151,-0.40184 0.3731,-0.48803 0.91501,-0.48803 0.54191,0 0.70349,0.0862 0.91501,0.48803 0.22467,0.42684 0.18898,0.76256 -0.12327,1.15952 -0.21354,0.27147 -0.39458,0.35195 -0.79174,0.35195 -0.39716,0 -0.5782,-0.0805 -0.79174,-0.35195 z m -7.29545,-0.64377 c -0.66255,-0.66255 -0.19307,-1.8093 0.74072,-1.8093 0.54912,0 1.06857,0.51945 1.06857,1.06858 0,0.26024 -0.12119,0.53405 -0.32786,0.74072 -0.20666,0.20666 -0.48047,0.32785 -0.74071,0.32785 -0.26025,0 -0.53406,-0.12119 -0.74072,-0.32785 z m -7.3975,-0.82552 c -0.59259,-0.75336 -0.16198,-1.65164 0.79174,-1.65164 0.95373,0 1.38433,0.89828 0.79174,1.65164 -0.21354,0.27146 -0.39458,0.35194 -0.79174,0.35194 -0.39716,0 -0.5782,-0.0805 -0.79174,-0.35194 z m 47.94275,-0.33527 c 0,-0.24729 -1.39785,-2.78134 -2.24436,-4.06863 -2.15692,-3.28001 -4.59649,-5.18808 -7.5732,-5.92327 -2.41792,-0.59718 -7.41467,-1.24285 -11.35364,-1.4671 -3.03007,-0.17251 -4.60825,-0.24091 -4.60825,-0.19972 0,0.0177 0.39412,0.21654 0.87583,0.44195 3.78039,1.76906 6.32819,4.79448 7.21259,8.56468 0.12925,0.55098 0.25429,1.02551 0.27788,1.05451 0.0236,0.029 3.90611,0.42734 8.62783,0.88523 4.72173,0.45788 8.63004,0.83988 8.68514,0.84889 0.0551,0.009 0.10018,-0.0524 0.10018,-0.13654 z m -96.906675,-6.79247 c 6.453009,-3.49162 13.392315,-6.56503 17.5508,-7.77322 l 1.506923,-0.43782 1.004361,0.53082 c 2.193816,1.15949 4.062958,3.6893 5.180763,7.01199 0.267665,0.79564 0.33022,0.87663 0.748272,0.96873 0.607835,0.13392 21.234366,1.87312 21.310606,1.79688 0.0327,-0.0327 -0.12042,-0.55245 -0.34031,-1.15495 -1.21663,-3.33365 -3.63285,-6.55951 -6.17811,-8.24831 -2.2463,-1.49044 -5.88537,-2.23228 -13.334206,-2.71822 -2.31414,-0.15097 -4.894627,-0.32571 -5.734419,-0.38831 l -1.526891,-0.11381 -1.678843,0.53577 c -3.960103,1.26377 -9.509367,3.79733 -13.700345,6.255 -1.965501,1.1526 -5.758959,3.61001 -7.680405,4.97538 -1.920758,1.36488 -2.027159,1.41082 2.871804,-1.23993 z m 65.072765,-5.30986 c 0.29283,-0.34896 0.63781,-0.79682 0.76663,-0.99523 0.12881,-0.19842 0.50155,-0.49018 0.82829,-0.64835 0.52324,-0.2533 0.77272,-0.28195 2.09269,-0.24031 l 1.49863,0.0472 -0.0466,-0.86822 c -0.0256,-0.47752 -0.0619,-0.88451 -0.0807,-0.90442 -0.0318,-0.0337 -43.796506,-5.37348 -44.040822,-5.37348 -0.06109,0 -0.111078,0.41643 -0.111078,0.9254 v 0.92539 l 0.701254,0.0727 c 0.38569,0.04 1.602867,0.13656 2.704836,0.21466 5.09255,0.36095 9.08269,1.17168 11.35228,2.3066 1.08357,0.54184 2.91537,1.78791 3.79733,2.5831 l 0.72381,0.6526 9.02697,0.95166 c 4.96483,0.52342 9.30307,0.9592 9.64052,0.9684 0.57609,0.0157 0.64608,-0.022 1.14597,-0.61773 z m 0.57721,-6.47825 c -0.003,-1.23975 -0.6647,-4.17778 -1.42774,-6.34167 l -0.34041,-0.96539 -1.21929,0.63145 -1.2193,0.63146 0.0432,1.66965 c 0.0392,1.51551 -0.14334,3.13528 -0.43745,3.88107 -0.0697,0.17665 0.24438,0.24919 2.09293,0.4834 1.19619,0.15156 2.25003,0.28344 2.34186,0.29306 0.0918,0.01 0.16661,-0.11774 0.16618,-0.28303 z m -6.48063,-1.45031 c 0.24085,-0.95442 0.38414,-2.78384 0.2465,-3.14705 -0.10516,-0.27751 -0.23015,-0.22619 -2.9806,1.2237 -2.71601,1.43173 -3.26059,1.79481 -3.03313,2.02228 0.14388,0.14387 5.35133,0.82284 5.47758,0.71419 0.0593,-0.0511 0.18968,-0.41698 0.28965,-0.81312 z m -13.74236,-1.52168 c 0.93366,-2.99491 1.84901,-5.72711 2.09299,-6.24727 0.25646,-0.54678 0.49512,-0.76757 1.68128,-1.55549 l 1.3824,-0.91825 -0.51418,-0.0826 c -1.31634,-0.21147 -12.42574,-1.68181 -12.70715,-1.68181 -0.36947,0 -0.38883,-0.0667 0.32941,1.13538 1.42644,2.38736 1.59402,4.98423 0.50822,7.87497 -0.24802,0.66029 -0.43882,1.21264 -0.42401,1.22744 0.0653,0.0653 6.74359,0.82052 7.09405,0.80226 0.33224,-0.0173 0.41525,-0.1 0.55699,-0.55463 z m -11.07509,-2.83841 c -0.0969,-2.42063 -0.45746,-4.9162 -1.02263,-7.07748 -0.21681,-0.82909 -0.3618,-1.59189 -0.32219,-1.6951 0.10621,-0.2768 1.01411,-0.87014 1.56359,-1.02186 0.38455,-0.10617 2.22244,0.10725 9.36418,1.08741 l 8.88572,1.21952 1.94041,-1.37733 c 1.68251,-1.19428 1.91502,-1.40272 1.74941,-1.56832 -0.22849,-0.22849 -32.125963,-4.86407 -32.68728,-4.75036 -0.513741,0.10407 -0.827567,0.50548 -0.74491,0.95281 0.03787,0.20492 0.409678,1.33431 0.826249,2.50974 1.313983,3.70767 2.205322,7.59505 2.502638,10.91474 0.08365,0.93403 0.194197,1.76636 0.245652,1.84962 0.08889,0.14382 6.145221,1.01653 7.261841,1.04642 l 0.5215,0.0139 z m -4.76564,0.36733 c -0.37638,-0.37638 -0.36282,-1.23618 0.0252,-1.59767 0.63096,-0.58783 1.50482,-0.13992 1.50482,0.7713 0,0.96772 -0.90166,1.45471 -1.53001,0.82637 z m -0.84752,-6.12145 c -0.278677,-0.30794 -0.28555,-1.07352 -0.01313,-1.46245 0.15164,-0.2165 0.34274,-0.29687 0.70585,-0.29687 0.40795,0 0.53933,0.0701 0.72707,0.38793 0.28471,0.48196 0.29195,0.93228 0.0212,1.31879 -0.26755,0.38199 -1.11493,0.41292 -1.44101,0.0526 z m -1.496066,-5.56006 c -0.206668,-0.20666 -0.32786,-0.48047 -0.32786,-0.74072 0,-0.50804 0.519591,-1.06857 0.990518,-1.06857 0.79878,0 1.204778,1.28941 0.587164,1.8648 -0.390769,0.36406 -0.850682,0.34363 -1.249822,-0.0555 z m 35.024866,3.81701 12.57866,-7.6449 -0.40204,-0.85912 c -0.30259,-0.64663 -0.43805,-1.19816 -0.54768,-2.22983 -0.0801,-0.75389 -0.16014,-1.39096 -0.17785,-1.41571 -0.0483,-0.0674 -23.56797,16.24544 -24.0132,16.65515 -0.76784,0.7066 -1.11922,2.19055 -0.74916,3.16388 0.12603,0.33149 0.15667,0.34321 0.43411,0.16604 0.16418,-0.10483 5.9589,-3.63081 12.87716,-7.83551 z m -44.903142,-8.59893 c 2.234887,-1.07078 3.516843,-1.43079 5.455862,-1.53215 l 1.448694,-0.0757 -0.08503,-0.41458 c -0.191036,-0.93147 -0.348433,-2.45886 -0.318016,-3.08604 l 0.03239,-0.66786 -0.789738,-0.31483 c -0.88791,-0.35397 -0.888976,-0.35349 -1.433786,0.6403 -0.156538,0.28554 -0.473682,0.53258 -0.98316,0.76583 -0.697692,0.31941 -0.854857,0.3396 -2.173223,0.27913 -1.025162,-0.047 -1.637141,-0.14809 -2.19635,-0.36276 -1.005945,-0.38615 -2.631433,-1.47726 -3.191699,-2.14242 l -0.440977,-0.52354 -1.035185,0.14832 c -0.5741,0.0823 -1.035185,0.21377 -1.035185,0.29528 0,0.0808 0.118473,0.56124 0.263274,1.06759 0.38887,1.35981 0.689823,3.8417 0.644642,5.31623 l -0.0397,1.29553 -0.732205,-0.45202 c -0.402712,-0.2486 -0.754615,-0.4296 -0.782006,-0.40221 -0.02739,0.0274 0.348432,0.70141 0.83516,1.49782 l 0.884963,1.44801 1.900628,-0.94196 c 1.045344,-0.51808 2.742133,-1.34515 3.770639,-1.83794 z m 62.678782,-4.74571 4.57485,-3.1318 v -0.57161 c 0,-0.59139 0.45782,-2.27317 0.65137,-2.39279 0.0604,-0.0373 0.12205,0.35033 0.13697,0.86148 0.10629,3.6401 2.84723,6.99465 6.48602,7.93805 0.96793,0.25095 3.04043,0.2628 4.14607,0.0237 2.73893,-0.59228 5.06271,-2.7168 6.03462,-5.51712 0.31235,-0.89999 0.36317,-1.25948 0.36499,-2.58167 0.003,-2.18368 -0.45348,-3.55443 -1.74187,-5.23085 -2.47044,-3.21449 -6.51077,-4.28853 -10.49313,-2.78939 -1.12931,0.42512 -5.70177,3.9682 -11.12829,8.623 -2.849,2.44385 -3.37024,3.08288 -3.85886,4.73098 -0.33351,1.12491 -0.26039,3.46639 0.10171,3.25697 0.0829,-0.0479 2.20938,-1.49647 4.72555,-3.21896 z m 12.44827,0.78791 c -1.2174,-0.38959 -2.09569,-0.94847 -3.00452,-1.91188 -1.49854,-1.58853 -2.00162,-2.97874 -1.90934,-5.27628 0.049,-1.22079 0.0977,-1.42779 0.55104,-2.34512 1.16219,-2.35154 3.1705,-3.73364 5.70589,-3.92677 1.74346,-0.1328 3.52878,0.41038 4.67503,1.42237 l 0.4675,0.41274 -0.45343,-0.21937 c -0.2494,-0.12066 -0.70254,-0.22836 -1.00702,-0.23934 -0.54692,-0.0197 -0.59931,0.0224 -4.35517,3.50294 -3.35753,3.11141 -3.79931,3.56753 -3.78212,3.90488 0.0223,0.4365 0.64451,1.5696 0.92004,1.67533 0.1012,0.0388 2.44464,-1.23444 5.20764,-2.82951 2.76301,-1.59507 5.12234,-2.90781 5.24296,-2.91721 0.30812,-0.024 0.59443,0.63627 0.61445,1.41696 l 0.017,0.66121 -4.97602,2.35133 c -2.73682,1.29323 -4.92895,2.3984 -4.87142,2.45593 0.0575,0.0575 0.3335,0.21593 0.61326,0.35201 l 0.50867,0.24742 3.96204,-1.17738 c 2.17912,-0.64756 4.0044,-1.1634 4.05617,-1.14632 0.19422,0.0641 -0.37315,0.96776 -1.02311,1.62954 -1.55759,1.58591 -2.9891,2.20517 -5.08178,2.19833 -0.9021,-0.003 -1.57659,-0.0814 -2.07771,-0.24181 z m -72.172114,-5.74771 c 0.493413,-0.22406 0.580171,-0.3375 0.834826,-1.09158 0.374243,-1.10819 0.361442,-1.24105 -0.141327,-1.46681 -0.291002,-0.13067 -0.473956,-0.33886 -0.578749,-0.65857 -0.1239,-0.37802 -0.229222,-0.47515 -0.550215,-0.50742 -0.316069,-0.0318 -0.436325,0.0337 -0.590008,0.32119 -0.215216,0.40262 -0.850981,0.72052 -1.440975,0.72052 -0.720363,0 -1.197801,0.15583 -1.265027,0.4129 -0.03606,0.13787 0.03528,0.59725 0.158516,1.02085 0.210988,0.72523 0.266198,0.79163 0.945892,1.13751 0.868278,0.44185 1.811323,0.48184 2.627067,0.11141 z m 2.140412,-4.08518 c 0.18762,-0.62565 0.225985,-1.92579 0.06435,-2.18074 -0.239065,-0.37708 -2.266283,-0.71047 -4.771541,-0.78471 -3.056765,-0.0906 -2.992817,-0.11795 -2.992817,1.28056 0,0.57417 0.06343,1.22592 0.140964,1.44832 0.165104,0.47361 0.519965,0.5667 2.169228,0.56903 1.106796,0.002 1.147475,-0.0185 1.875932,-0.92571 0.203733,-0.25372 0.329321,-0.29221 0.734648,-0.22519 0.268898,0.0445 0.626033,0.0815 0.793634,0.0823 0.16885,8.1e-4 0.341434,0.1057 0.387044,0.23522 0.381706,1.08395 0.413485,1.12044 0.937601,1.07684 0.456223,-0.0379 0.514978,-0.0892 0.660958,-0.57594 z"
       id="path179" /></g></svg>
