<?xml version="1.0" encoding="UTF-8" standalone="no"?>
<!-- Created with Inkscape (http://www.inkscape.org/) -->

<svg
   width="23.699711mm"
   height="25.628897mm"
   viewBox="0 0 23.699711 25.628896"
   version="1.1"
   id="svg5"
   xml:space="preserve"
   sodipodi:docname="pillowfort.svg"
   xmlns:inkscape="http://www.inkscape.org/namespaces/inkscape"
   xmlns:sodipodi="http://sodipodi.sourceforge.net/DTD/sodipodi-0.dtd"
   xmlns="http://www.w3.org/2000/svg"
   xmlns:svg="http://www.w3.org/2000/svg"><sodipodi:namedview
     id="namedview127"
     pagecolor="#ffffff"
     bordercolor="#000000"
     borderopacity="0.25"
     inkscape:showpageshadow="2"
     inkscape:pageopacity="0.0"
     inkscape:pagecheckerboard="0"
     inkscape:deskcolor="#d1d1d1"
     inkscape:document-units="mm"
     showgrid="false" /><defs
     id="defs2" /><g
     id="layer1"
     transform="translate(-84.132062,-136.0131)"
     style="fill:#000000"><path
       style="fill:#000000;stroke-width:0.264583"
       d="m 84.609201,160.64981 c 0.0013,-0.54571 0.291192,-2.12329 0.644143,-3.50573 0.352952,-1.38245 1.016356,-3.58511 1.474232,-4.89479 0.457876,-1.30969 1.425,-3.63141 2.149164,-5.15938 0.724163,-1.52797 1.845611,-3.69531 2.492104,-4.81632 0.646494,-1.121 1.175444,-2.10153 1.175444,-2.17895 0,-0.0774 -0.601196,0.0962 -1.335991,0.38584 -0.734795,0.28963 -1.818194,0.7726 -2.407553,1.07327 -0.589359,0.30067 -1.596197,1.03026 -2.237417,1.62132 -0.641221,0.59105 -1.269569,1.4458 -1.396331,1.89943 l -0.230475,0.82479 -0.456685,-1.04888 c -0.297969,-0.68434 -0.407947,-1.41223 -0.31645,-2.09439 0.07713,-0.57504 0.476337,-1.52126 0.88713,-2.10272 0.410793,-0.58146 1.313728,-1.44661 2.006522,-1.92256 0.692794,-0.47595 1.901799,-1.10563 2.686677,-1.39929 0.784878,-0.29366 2.412276,-0.73356 3.616438,-0.97756 1.546805,-0.31342 2.893778,-0.40186 4.589365,-0.30133 1.319988,0.0783 3.005252,0.33023 3.745022,0.55992 0.73978,0.22969 1.84975,0.75658 2.46661,1.17087 0.61685,0.41428 1.34861,1.09937 1.62612,1.52241 0.27751,0.42304 0.6345,1.39505 0.79331,2.16003 0.23268,1.12084 0.20918,1.66451 -0.12106,2.80049 -0.22538,0.7753 -0.70264,1.84118 -1.06058,2.36863 -0.57751,0.85101 -0.60051,0.97308 -0.20428,1.08412 0.24558,0.0688 0.82523,0.2012 1.28812,0.29418 0.46288,0.093 0.98844,0.34596 1.16789,0.56219 0.26209,0.3158 0.24511,0.47433 -0.0863,0.80573 -0.35945,0.35944 -0.64728,0.37063 -2.23499,0.0869 l -1.82241,-0.32568 -2.13477,1.45362 c -1.17413,0.79949 -2.837067,1.72273 -3.695415,2.05165 -0.905123,0.34684 -2.413186,0.6526 -3.590387,0.72796 -1.913137,0.12246 -2.06895,0.0907 -2.711979,-0.5523 -0.393496,-0.3935 -0.682225,-0.98203 -0.682225,-1.39061 0,-0.46847 0.317455,-1.00779 0.937294,-1.59237 0.588254,-0.5548 1.571372,-1.07983 2.640019,-1.4099 0.936499,-0.28926 2.914232,-0.65025 4.394961,-0.8022 1.480732,-0.15195 2.846612,-0.40439 3.035282,-0.56098 0.18868,-0.15659 0.58713,-0.78891 0.88546,-1.40516 0.29832,-0.61625 0.54196,-1.64842 0.54141,-2.2937 -5.3e-4,-0.69641 -0.21089,-1.51749 -0.51747,-2.02028 -0.28406,-0.46588 -0.90774,-1.04939 -1.38596,-1.29668 -0.47822,-0.2473 -1.64434,-0.50422 -2.591386,-0.57094 l -1.721901,-0.12131 -1.719792,2.60499 c -0.945885,1.43274 -2.619329,4.39255 -3.718765,6.57736 -1.099435,2.18481 -2.449573,5.22253 -3.000305,6.7505 -0.550733,1.52797 -1.176464,3.27727 -1.390512,3.88733 -0.214049,0.61006 -0.628725,1.41373 -0.921502,1.78594 -0.292778,0.3722 -0.761806,0.67673 -1.042286,0.67673 -0.413331,0 -0.509506,-0.188 -0.50755,-0.99218 z M 97.0319,150.90234 c 0.660511,-0.36175 1.498586,-0.89949 1.862388,-1.19498 l 0.661458,-0.53724 -1.322917,0.16419 c -0.727604,0.0903 -1.97776,0.34595 -2.778125,0.5681 -0.800364,0.22215 -1.723099,0.57593 -2.050521,0.78618 -0.327421,0.21025 -0.595312,0.54939 -0.595312,0.75364 0,0.20426 0.208359,0.41587 0.463021,0.47025 0.254661,0.0544 0.934634,-0.003 1.51105,-0.12677 0.576416,-0.1241 1.588447,-0.52162 2.248958,-0.88337 z"
       id="path181" /></g></svg>
