<?xml version="1.0" encoding="UTF-8" standalone="no"?>
<svg
   xml:space="preserve"
   width="1000"
   height="1000"
   version="1.1"
   id="svg203"
   sodipodi:docname="pixiv.svg"
   xmlns:inkscape="http://www.inkscape.org/namespaces/inkscape"
   xmlns:sodipodi="http://sodipodi.sourceforge.net/DTD/sodipodi-0.dtd"
   xmlns="http://www.w3.org/2000/svg"
   xmlns:svg="http://www.w3.org/2000/svg"><defs
     id="defs207" /><sodipodi:namedview
     id="namedview205"
     pagecolor="#ffffff"
     bordercolor="#000000"
     borderopacity="0.25"
     inkscape:showpageshadow="2"
     inkscape:pageopacity="0.0"
     inkscape:pagecheckerboard="0"
     inkscape:deskcolor="#d1d1d1"
     showgrid="false" /><path
     id="path199"
     style="fill:#000000"
     d="M 200.47461,0 C 90.03172,0 0,89.03172 0,199.47461 V 799.52539 C 0,909.97028 90.03172,1000 200.47461,1000 H 800.52539 C 910.97028,1000 1000,909.97028 1000,799.52539 V 199.47461 C 1000,89.03172 910.96928,0 800.52539,0 Z m 336.56445,186.50977 c 90.85591,0 169.0202,27.97564 224.86914,76.43359 l -0.008,0.008 c 55.86594,48.26995 87.66333,117.3912 87.48633,192.70313 0.249,76.69092 -37.36803,143.78879 -94.66797,188.71875 C 697.42781,689.572 619.06321,714.60938 534.4043,714.60938 438.03039,714.60938 346,679.74219 346,679.74219 v 112.45703 c 20.99998,4.80699 48.90148,13.8008 31.6875,34.80078 H 247.27539 C 230.23141,806.00002 256.00001,797.49621 268,792.19922 V 315.56445 c -36.99996,33.45697 -63.26111,62.46784 -74.74609,84.00782 13.29798,42.15295 -8.74414,40.06054 -8.74414,40.06054 l -45.37696,-71.55859 c 0,0 161.06749,-181.55245 397.90625,-181.56445 z m -10.59179,40.17578 C 467.21532,226.56855 395.99995,246.23305 346,278.16602 v 357.57812 c 44.99995,20.15798 105.882,34.43367 180.04492,34.38867 66.46294,0.045 128.95512,-24.52094 165.95508,-63.3789 v -0.0137 c 36.99996,-39.17796 61.62705,-90.28132 61.87305,-152.32226 -0.189,-63.66194 -21.2842,-118.44187 -59.41016,-159.67383 -38.23196,-40.97496 -96.0437,-67.99459 -168.01562,-68.05859 z" /></svg>
