<?xml version="1.0" encoding="UTF-8" standalone="no"?>
<svg
   viewBox="0 0 234.66601 165.33399"
   height="165.33398"
   width="234.66602"
   xml:space="preserve"
   id="svg2"
   version="1.1"
   sodipodi:docname="youtube.svg"
   xmlns:inkscape="http://www.inkscape.org/namespaces/inkscape"
   xmlns:sodipodi="http://sodipodi.sourceforge.net/DTD/sodipodi-0.dtd"
   xmlns="http://www.w3.org/2000/svg"
   xmlns:svg="http://www.w3.org/2000/svg"
   xmlns:rdf="http://www.w3.org/1999/02/22-rdf-syntax-ns#"
   xmlns:cc="http://creativecommons.org/ns#"
   xmlns:dc="http://purl.org/dc/elements/1.1/"><sodipodi:namedview
     id="namedview217"
     pagecolor="#ffffff"
     bordercolor="#000000"
     borderopacity="0.25"
     inkscape:showpageshadow="2"
     inkscape:pageopacity="0.0"
     inkscape:pagecheckerboard="0"
     inkscape:deskcolor="#d1d1d1"
     showgrid="false"
     showguides="false" /><metadata
     id="metadata8"><rdf:RDF><cc:Work
         rdf:about=""><dc:format>image/svg+xml</dc:format><dc:type
           rdf:resource="http://purl.org/dc/dcmitype/StillImage" /></cc:Work></rdf:RDF></metadata><defs
     id="defs6" /><g
     transform="matrix(1.3333333,0,0,-1.3333333,0,165.33333)"
     id="g10"><g
       transform="scale(0.1)"
       id="g12"><path
         id="path14"
         style="fill:#000000;fill-opacity:1;fill-rule:nonzero;stroke:none"
         d="m 880.0049,1240 c 0,0 -550.3731,0 -687.62697,-37.0166 C 116.65501,1182.6134 57.020507,1122.5969 36.782227,1046.377 0.00496426,908.23409 0,620.00487 0,620.00487 c 0,0 0.00496426,-288.23086 36.782227,-426.38673 C 57.020507,117.40722 116.65501,57.390574 192.37793,37.011695 329.6318,3.1686993e-5 880.0049,-0.00490781 880.0049,-0.00490781 c 0,0 550.3625,0.004939497 687.6123,37.01660281 75.73,20.378879 135.3558,80.395525 155.5957,156.606445 36.78,138.15587 36.7823,426.38673 36.7823,426.38673 0,0 0,288.22922 -36.7823,426.37213 -20.2399,76.2199 -79.8657,136.2364 -155.5957,156.6064 C 1430.3674,1240.0034 880.0049,1240 880.0049,1240 Z m -180,-358.31543 459.9902,-261.69435 -459.9902,-261.67969 z" /></g></g></svg>
